<svg width="40" height="49" viewBox="0 0 40 49" fill="none" xmlns="http://www.w3.org/2000/svg">
<path d="M37.784 39.192C38.1253 39.704 38.4453 40.4933 38.744 41.56C39.0427 42.6267 39.2347 43.6507 39.32 44.632L32.28 48.024C31 47.7253 29.6773 47.2773 28.312 46.68C26.9893 46.04 25.7733 45.336 24.664 44.568C23.5547 43.8 22.68 43.0747 22.04 42.392L15.832 26.904L10.84 31.256L10.904 47L7.192 47.896C6.08267 47.3413 4.952 46.5947 3.8 45.656C2.648 44.6747 1.70933 43.5013 0.984 42.136L4.12 25.496L3.352 2.2L5.208 0.919998C5.67733 1.00533 6.31733 1.24 7.128 1.624C7.98133 2.008 8.81333 2.43466 9.624 2.904C10.4347 3.37333 11.032 3.82133 11.416 4.248L10.904 24.408L30.04 2.2H32.664C34.1573 4.376 35.1173 6.808 35.544 9.496L21.592 21.784C22.9147 25.0693 24.4293 28.44 26.136 31.896C27.8853 35.3093 29.6987 38.2747 31.576 40.792L37.784 39.192Z" fill="white"/>
</svg>
